<?xml version="1.0" standalone="no"?>
<!DOCTYPE svg PUBLIC "-//W3C//DTD SVG 20010904//EN"
 "http://www.w3.org/TR/2001/REC-SVG-20010904/DTD/svg10.dtd">
<svg version="1.0" xmlns="http://www.w3.org/2000/svg"
 width="209.000000pt" height="209.000000pt" viewBox="0 0 209.000000 209.000000"
 preserveAspectRatio="xMidYMid meet">
<metadata>
Created by potrace 1.14, written by Peter Selinger 2001-2017
</metadata>
<g transform="translate(0.000000,209.000000) scale(0.100000,-0.100000)"
fill="#000000" stroke="none">
<path d="M913 1910 c-257 -27 -492 -195 -608 -435 -55 -113 -75 -205 -75 -338
0 -238 105 -455 291 -600 l79 -62 0 -61 c0 -55 -2 -62 -30 -82 -62 -46 -24
-121 54 -106 l36 6 0 -49 0 -50 88 -1 c48 -1 123 -1 167 -1 188 1 442 1 460 0
64 -4 86 2 104 25 10 13 26 24 34 24 22 0 27 22 27 111 0 87 -7 79 79 93 80
14 99 88 30 115 -19 7 -33 26 -49 66 l-23 56 21 27 c70 88 139 231 161 332 15
72 13 252 -4 335 -21 101 -101 255 -176 338 -172 190 -412 283 -666 257z"/>
<path d="M1800 10 c0 -5 5 -10 11 -10 5 0 7 5 4 10 -3 6 -8 10 -11 10 -2 0 -4
-4 -4 -10z"/>
</g>
</svg>
